CP16_T0_11_IK_adjusted.mot
version=1
nRows=38
nColumns=11
inDegrees=no
endheader
                time	         pelvis_tilt	           pelvis_tx	           pelvis_ty	       hip_flexion_l	       hip_flexion_r	        knee_angle_l	        knee_angle_r	       ankle_angle_l	       ankle_angle_r	    lumbar_extension	
          0.54000000	          0.14062152	          0.55134015	          0.91068103	          0.46695853	         -0.26219492	         -0.53777654	         -0.32251140	         -0.07239478	          0.19697460	         -0.28819113	
          0.55000000	          0.13777155	          0.56145558	          0.90841265	          0.46501406	         -0.26490268	         -0.53195364	         -0.33520757	         -0.07562074	          0.19910480	         -0.28563651	
          0.56000000	          0.13356936	          0.57134810	          0.90634463	          0.46430887	         -0.26652627	         -0.53131097	         -0.34677248	         -0.07767400	          0.20090527	         -0.28194708	
          0.57000000	          0.12699843	          0.58123384	          0.90379983	          0.46687922	         -0.26386920	         -0.53672057	         -0.36156526	         -0.08188831	          0.20187808	         -0.27605164	
          0.58000000	          0.12382831	          0.59197112	          0.90169475	          0.46179840	         -0.26627147	         -0.54059247	         -0.37487592	         -0.08727828	          0.20234175	         -0.27212977	
          0.59000000	          0.11814789	          0.60248474	          0.89958913	          0.45599059	         -0.26461527	         -0.54000192	         -0.39041632	         -0.09117210	          0.20075951	         -0.26606047	
          0.60000000	          0.11389469	          0.61352664	          0.89775166	          0.44325012	         -0.26458510	         -0.53279053	         -0.40607838	         -0.09717608	          0.19391820	         -0.26086137	
          0.61000000	          0.10646112	          0.62483692	          0.89577968	          0.42881937	         -0.26051547	         -0.51855680	         -0.42385505	         -0.09282373	          0.18824737	         -0.25183268	
          0.62000000	          0.09907836	          0.63586194	          0.89412729	          0.41049146	         -0.25390710	         -0.49999177	         -0.44387322	         -0.05243340	          0.17515541	         -0.24386847	
          0.63000000	          0.08237326	          0.64624236	          0.89240248	          0.40479135	         -0.23263383	         -0.48113322	         -0.47046021	         -0.04024881	          0.16480726	         -0.22699141	
          0.64000000	          0.06514298	          0.65587614	          0.89109467	          0.40902261	         -0.20675729	         -0.47690346	         -0.50160022	         -0.03008166	          0.14285736	         -0.21220147	
          0.65000000	          0.05461526	          0.66622233	          0.89059029	          0.41920465	         -0.18706958	         -0.49470093	         -0.53535550	         -0.01341059	          0.12282554	         -0.20255605	
          0.66000000	          0.04313036	          0.67469900	          0.89057927	          0.43809885	         -0.16074280	         -0.52064016	         -0.57158005	         -0.00057271	          0.09409270	         -0.19829634	
          0.67000000	          0.03837526	          0.68443622	          0.89108036	          0.44262622	         -0.14500970	         -0.53981334	         -0.60635185	          0.01264346	          0.06816660	         -0.19836359	
          0.68000000	          0.03645696	          0.69413835	          0.89223801	          0.43581484	         -0.13113734	         -0.54676100	         -0.64020754	          0.02702308	          0.03794659	         -0.20221410	
          0.69000000	          0.02659274	          0.70339658	          0.89281087	          0.43328314	         -0.10481584	         -0.54445776	         -0.67853942	          0.03771329	          0.00045824	         -0.19757142	
          0.70000000	          0.02047952	          0.71303441	          0.89428471	          0.41926340	         -0.08220513	         -0.53116320	         -0.71438353	          0.04704003	         -0.04359874	         -0.19702143	
          0.71000000	          0.00900528	          0.72236995	          0.89533752	          0.40983257	         -0.04861940	         -0.51473197	         -0.75520174	          0.05481780	         -0.09302654	         -0.19078579	
          0.72000000	         -0.00114021	          0.73172929	          0.89660341	          0.39822573	         -0.01289608	         -0.49659968	         -0.79889177	          0.06116322	         -0.14489230	         -0.18587084	
          0.73000000	         -0.01336375	          0.74071142	          0.89795591	          0.39045407	          0.02901717	         -0.48031324	         -0.84456811	          0.06578101	         -0.19704474	         -0.17926091	
          0.74000000	         -0.02589612	          0.74867232	          0.89946554	          0.38476361	          0.07512565	         -0.46446628	         -0.89206089	          0.06947995	         -0.24656936	         -0.17548843	
          0.75000000	         -0.03658903	          0.75636843	          0.90106783	          0.37771996	          0.12150282	         -0.44922852	         -0.94027472	          0.07185059	         -0.28120764	         -0.17453547	
          0.76000000	         -0.04582747	          0.76519007	          0.90266673	          0.36584020	          0.16370352	         -0.43047699	         -0.98350948	          0.07457659	         -0.28763708	         -0.17204258	
          0.77000000	         -0.04970074	          0.77379846	          0.90469156	          0.34816385	          0.20076901	         -0.41118604	         -1.02241916	          0.07718818	         -0.26463669	         -0.17841715	
          0.78000000	         -0.05350730	          0.78214363	          0.90660513	          0.33077869	          0.23852473	         -0.39149224	         -1.05500328	          0.07999706	         -0.23543494	         -0.18463253	
          0.79000000	         -0.05732201	          0.79064209	          0.90826174	          0.31420875	          0.27615350	         -0.37381073	         -1.08179919	          0.08457075	         -0.21244182	         -0.19040936	
          0.80000000	         -0.06178212	          0.79907868	          0.90987352	          0.29799710	          0.31544907	         -0.35518522	         -1.10500690	          0.08708379	         -0.18795602	         -0.19554397	
          0.81000000	         -0.06214197	          0.80768695	          0.91170751	          0.27841524	          0.35117331	         -0.33838639	         -1.12474500	          0.08858450	         -0.15750630	         -0.20455263	
          0.82000000	         -0.06232332	          0.81657152	          0.91337478	          0.25789709	          0.38613284	         -0.32060317	         -1.13812331	          0.09108255	         -0.12859618	         -0.21458884	
          0.83000000	         -0.05996614	          0.82557180	          0.91498327	          0.23550092	          0.41751711	         -0.30455521	         -1.14562230	          0.09370894	         -0.09608785	         -0.22531395	
          0.84000000	         -0.06241526	          0.83446786	          0.91610266	          0.21850957	          0.45324390	         -0.28865950	         -1.14500718	          0.09517188	         -0.06609158	         -0.23077584	
          0.85000000	         -0.06240344	          0.84354998	          0.91723292	          0.20048239	          0.48408111	         -0.27613225	         -1.13524269	          0.09827454	         -0.04419909	         -0.23829776	
          0.86000000	         -0.06092054	          0.85278933	          0.91835764	          0.18112388	          0.51030453	         -0.26450863	         -1.11458136	          0.10014835	         -0.03244399	         -0.24596178	
          0.87000000	         -0.06560383	          0.86163090	          0.91871660	          0.17045642	          0.54248747	         -0.25564886	         -1.08907382	          0.10353261	         -0.02502119	         -0.24664570	
          0.88000000	         -0.06656656	          0.87101041	          0.91914747	          0.15481097	          0.56696947	         -0.24658618	         -1.05465515	          0.11021795	         -0.01082037	         -0.25046518	
          0.89000000	         -0.06845146	          0.88040201	          0.91917437	          0.14202002	          0.59082483	         -0.24050828	         -1.01505923	          0.11617956	         -0.00525465	         -0.25346809	
          0.90000000	         -0.06976816	          0.88989537	          0.91885232	          0.13150647	          0.61077169	         -0.24012158	         -0.96820582	          0.12513442	          0.00273403	         -0.25631076	
          0.91000000	         -0.06746568	          0.89964627	          0.91833815	          0.11657744	          0.62391144	         -0.23900481	         -0.91533996	          0.13094978	          0.00722180	         -0.26283734	
